**ABCDEFGHIJKLMNOPQRSTUVWXYZabcdefghijklmnopqrstuvwxyz**************************
**PARASOLID !"#$%&'()*+,-./:;<=>?@[\]^_`{|}~0123456789**************************
**PART1;
MC=AMD64;
MC_MODEL=Intel64 Family 6 Model 158 Stepping 13, GenuineIntel;
MC_ID=unknown;
OS=Windows_NT;
OS_RELEASE=unknown;
FRU=Parasolid Version 34.1, build 247, 10- 7-2022;
APPL=SOLIDWORKS 2023-2023010;
SITE=;
USER=unknown;
FORMAT=text;
GUISE=transmit;
KEY=makeProjectedPlanarWire;
FILE=makeProjectedPlanarWire.x_t;
DATE=Mon Feb 10 18:33:17 2025;
**PART2;
SCH=SCH_3401247_34101;
USFLD_SIZE=0;
**PART3;
**END_OF_HEADER*****************************************************************
T51 : TRANSMIT FILE created by modeller version 340124723 SCH_3401247_34101_1300
6231 0 12 36 CCCI7 lattice222 0 CCCI4 mesh1006 0 I8 polyline1008 0 CCCCCCCDI5 ow
ner1040 0 CCCI16 boundary_lattice222 0 CCCI13 boundary_mesh1006 0 I17 boundary_p
olyline1008 0 CCCA16 index_map_offset0 0 1 dA9 index_map82 0 A17 node_id_index_m
ap82 0 A20 schema_embedding_map82 0 A5 child12 0 A14 lowest_node_id0 0 1 dA16 me
sh_offset_data206 0 Z1 58 2 3 0 0 0 0 0 0 0 1e3 1e-8 0 4 0 1 0 3 1 5 0 6 7 8 0 0
 9 10 11 0 0 0 0 0 0 0 81 255 2 2 47 12 1 0 0 0 0 13 0 70 11 CI9 list_type0 0 1
 uI10 notransmit0 0 1 lCCCDCCDI12 finger_index0 0 1 dI12 finger_block1012 0 CZ3
 0 4 T1 0 0 2 20 1 14 14 13 255 5 54 0 1 0 15 0 0 9 15 50 255 6 3 0 15 0 0 0 +-.
275 .02185767668643595 88810388911666e-18 1 0 0 0 0 -1 30 255 7 27 0 10 16 0 0 +
-.275 .027 88810388911666e-18 0 0 1 29 255 8 45 0 11 17 0 -.275 .027 .0339999990
139523 19 9 CCCCCCI5 frame230 0 CA5 owner12 0 Z9 53 0 1 0 0 5 0 V0 16 255 10 25
 0 ?18 0 19 7 0 0 1 18 255 11 43 0 20 0 21 8 ?1 17 255 20 0 0 0 0 11 22 23 0 24
 +18 21 40 0 25 11 26 17 ?1 17 25 0 27 24 28 21 29 19 0 18 +18 26 37 0 28 21 30
 31 ?1 29 17 42 0 21 31 8 -.275 .027 .0459999990139523 29 31 39 0 26 32 17 -.275
 .02760287814360525 .0459999990139523 29 32 36 0 30 33 31 -.275 .021388673285024
15 .089 18 30 34 0 34 26 35 32 ?1 29 33 33 0 35 36 32 -.275 .0211572890238036 .0
89 18 35 31 0 37 30 38 33 ?1 29 36 30 0 38 0 33 -.275 .02826451740683605 .033999
9990139523 18 38 28 0 22 35 0 36 ?1 17 22 0 27 37 24 38 20 23 0 39 -15 255 27 8
 0 22 15 0 17 37 0 27 34 22 35 39 40 0 41 +17 24 0 27 22 25 11 18 10 0 0 -16 23
 12 0 ?20 40 42 43 0 0 1 17 39 0 0 0 0 38 37 40 0 0 -16 40 15 0 ?37 44 23 45 46
 46 1 16 44 18 0 ?34 46 40 47 0 0 1 134 255 45 17 0 40 43 47 0 +48 49 16 46 21 0
 ?28 19 44 45 40 40 1 17 28 0 27 25 34 26 50 46 0 29 +16 19 22 0 ?25 10 46 16 0
 0 1 30 16 24 0 19 47 7 0 +-.275 .02185767668643595 .0459999990139523 0 -1 0 30
 47 20 0 44 45 16 0 +-.275 .02138867328502415 .089 0 1 0 17 34 0 27 28 37 30 41
 44 0 50 +17 50 0 0 0 0 30 28 46 0 0 -17 29 0 0 0 0 26 25 19 0 0 -17 41 0 0 0 0
 35 34 44 0 0 -30 43 14 0 23 51 45 0 +-.275 .02185767668643595 .0339999990139523
 0 -1 0 136 255 48 3 37 3 35 6 FFF1 52 53 54 135 255 49 2 0 45 255 111 52 -.275
 .02138867328502415 .089 -.275 .0216924393138106 .0875175902156763 -.275 .022299
17355381975 .0845566640796384 -.275 .0234104909631112 .0786297269469737 -.275 .0
24641831569462 .0712170631809324 -.275 .0259162390672229 .0623159799477099 -.275
 .02697904782937225 .0534163650243348 -.275 .02775725231265595 .0445128917718668
 -.275 .02828424975252295 .0356114461447732 -.275 .02837345467363725 .0281847004
811248 -.275 .02812772972426425 .0222491575224991 -.275 .0277676716658709 .01779
38603249267 -.275 .02719749630554565 .0133329383648118 -.275 .02649536945376025
 .00962034210956704 -.275 .02570101556618205 .00666058751576171 -.275 .024978830
3768218 .0044166755350325 -.275 .02413737616173765 .002515525439905545 -.275 .02
31172060054036 .000875610555548999 -.275 .02135296634874885 -.000554450875401541
 -.275 .01980223153612515 .000931001928104729 -.275 .0190949550918379 .002540242
56096899 -.275 .01855770361372175 .00443302859202716 -.275 .01817249285258605 .0
0666955299200507 -.275 .01784375837704925 .0096411531037039 -.275 .0175907357079
99 .01335043146811792 -.275 .01748929146667285 .0178043187113869 -.275 .01750342
806254835 .0222550272141336 -.275 .0176344002740936 .0281885067397123 -.275 .017
87007720680715 .0356060485187279 -.275 .01828022649231205 .04450599812109215 -.2
75 .01881331866546215 .053403367010658 -.275 .01936742530061015 .062302244976370
5 -.275 .0199283008784247 .071202644496692 -.275 .0204448648269986 .078617203737
1231 -.275 .02084330005555645 .0845506800402072 -.275 .02105262124281795 .087516
8254487195 -.275 .0211572890238036 .089 127 255 35 53 4 1 1 1 1 1 1 1 1 1 1 1 1
 1 1 1 1 1 1 1 1 1 1 1 1 1 1 1 1 1 1 1 1 1 4 128 255 35 54 0 .0250124897498648 .
0499592861642578 .0996729249269686 .1492063199099662 .198581096615965 .247805170
4568325 .296916574601493 .345952721793533 .3704916255699105 .395091203654929 .41
981479582396 .4447985750165955 .457489818915221 .47040640543549 .483879408669829
 .491264120322896 .503458853294665 .513609129403887 .520450990700287 .5332353876
15153 .545691039147803 .558031884237173 .582609167247894 .607134741746914 .63165
2079836766 .656174271859652 .705233949250519 .754320378530032 .803437363555032 .
852566095729538 .901700994033255 .950848809337271 .975422716989279 1 31 255 51 1
1 0 42 0 43 0 +-.275 .0227191945863651 .02 1 0 0 0 0 -1 .003 16 42 9 0 ?55 23 0
 51 0 0 1 17 55 0 56 55 55 0 57 42 0 0 +15 56 7 0 55 15 27 17 57 0 0 0 0 0 55 42
 0 0 -14 255 15 1 58 ?0 0 56 5 6 -0 0 0 0 5 81 1 58 58 59 15 0 0 0 0 60 80 7 CCC
CCDI12 legal_owners0 16 1 lCZ1 59 61 62 9000 1 1 1 1 1 1 1 1 0 FFFFTFTFFFFFFFFF1
 82 255 1 60 154207374 79 255 14 62 SWEntUnchanged17 18 0 0 0 0 21 24 10 0 0 +74
 4 CI16 index_map_offset0 0 1 dCCZ20 14 2 0 0 2 58 0 0 0 0 0 0 0 0 0 0 0 0 0 0 0
 0 0 0 80 2 12 63 64 9000 0 0 0 0 3 5 0 0 0 FFTFTTTFFTFFFFFF3 3 84 255 7 13 Mirr
or379 21 64 SWIMPLICITBODYNAME_ID1 0 
